<?xml version="1.0" encoding="UTF-8" standalone="no"?>
<!-- Created with Inkscape (http://www.inkscape.org/) -->

<svg
   xmlns:dc="http://purl.org/dc/elements/1.1/"
   xmlns:cc="http://creativecommons.org/ns#"
   xmlns:rdf="http://www.w3.org/1999/02/22-rdf-syntax-ns#"
   xmlns:svg="http://www.w3.org/2000/svg"
   xmlns="http://www.w3.org/2000/svg"
   xmlns:sodipodi="http://sodipodi.sourceforge.net/DTD/sodipodi-0.dtd"
   xmlns:inkscape="http://www.inkscape.org/namespaces/inkscape"
   width="166.42088"
   height="666.14661"
   id="svg2"
   version="1.1"
   inkscape:version="0.48.4 r9939"
   sodipodi:docname="icons.svg">
  <defs
     id="defs4">
    <marker
       inkscape:stockid="Arrow1Send"
       orient="auto"
       refY="0"
       refX="0"
       id="Arrow1Send"
       style="overflow:visible">
      <path
         id="path3785"
         d="M 0,0 5,-5 -12.5,0 5,5 0,0 z"
         style="fill-rule:evenodd;stroke:#000000;stroke-width:1pt"
         transform="matrix(-0.2,0,0,-0.2,-1.2,0)"
         inkscape:connector-curvature="0" />
    </marker>
    <marker
       inkscape:stockid="Arrow1Lstart"
       orient="auto"
       refY="0"
       refX="0"
       id="Arrow1Lstart"
       style="overflow:visible">
      <path
         id="path3770"
         d="M 0,0 5,-5 -12.5,0 5,5 0,0 z"
         style="fill-rule:evenodd;stroke:#000000;stroke-width:1pt"
         transform="matrix(0.8,0,0,0.8,10,0)"
         inkscape:connector-curvature="0" />
    </marker>
  </defs>
  <sodipodi:namedview
     id="base"
     pagecolor="#ffffff"
     bordercolor="#666666"
     borderopacity="1.0"
     inkscape:pageopacity="0.0"
     inkscape:pageshadow="2"
     inkscape:zoom="4"
     inkscape:cx="96.923438"
     inkscape:cy="14.159013"
     inkscape:document-units="px"
     inkscape:current-layer="layer1"
     showgrid="false"
     inkscape:window-width="1855"
     inkscape:window-height="1056"
     inkscape:window-x="65"
     inkscape:window-y="24"
     inkscape:window-maximized="1"
     fit-margin-top="0"
     fit-margin-left="0"
     fit-margin-right="0"
     fit-margin-bottom="0" />
  <metadata
     id="metadata7">
    <rdf:RDF>
      <cc:Work
         rdf:about="">
        <dc:format>image/svg+xml</dc:format>
        <dc:type
           rdf:resource="http://purl.org/dc/dcmitype/StillImage" />
        <dc:title></dc:title>
      </cc:Work>
    </rdf:RDF>
  </metadata>
  <g
     inkscape:label="Layer 1"
     inkscape:groupmode="layer"
     id="layer1"
     transform="translate(-7.3236056,-9.7875287)">
    <g
       id="g4606"
       transform="translate(-366.57288,-71.751288)"
       inkscape:export-filename="/home/tim/Sync/Code/BuyBananas/img/new categories/obst.png"
       inkscape:export-xdpi="374.39447"
       inkscape:export-ydpi="374.39447">
      <g
         id="g4597">
        <g
           id="g4588"
           transform="translate(45.961941,-92.934035)">
          <path
             sodipodi:nodetypes="csccccccc"
             inkscape:connector-curvature="0"
             id="path2996"
             d="m 368.77376,187.86796 c 7.11675,-7.18701 2.76989,-7.03333 2.68679,-6.91481 -3.7036,5.28208 -4.51356,13.06943 -4.04983,18.90903 7.3264,-7.15904 17.16577,-6.609 21.60714,-0.26786 5.59392,7.23833 5.40444,23.60259 0.0893,29.82144 -12.17978,14.1153 -20.27296,3.61039 -22.23215,1.07142 -8.34001,9.3871 -16.49938,6.61378 -21.69643,-0.625 -5.03863,-7.25372 -7.77861,-24.31409 -0.53571,-30.89286 6.30854,-6.05701 15.56645,-6.29416 22.76785,0.89286"
             style="fill:none;stroke:#000000;stroke-width:5;stroke-linecap:butt;stroke-linejoin:round;stroke-miterlimit:4;stroke-opacity:1;stroke-dasharray:none;marker-end:none" />
          <path
             inkscape:connector-curvature="0"
             id="path4580"
             d="m 358.21429,213.25504 3.57143,-1.51786"
             style="fill:none;stroke:#000000;stroke-width:5;stroke-linecap:round;stroke-linejoin:round;stroke-miterlimit:4;stroke-opacity:1;stroke-dasharray:none" />
          <path
             inkscape:connector-curvature="0"
             id="path4582"
             d="m 372.58929,211.82647 3.21428,1.69642"
             style="fill:none;stroke:#000000;stroke-width:5;stroke-linecap:round;stroke-linejoin:round;stroke-miterlimit:4;stroke-opacity:1;stroke-dasharray:none" />
          <path
             inkscape:connector-curvature="0"
             id="path4584"
             d="m 361.60714,219.86218 -2.5,3.03571"
             style="fill:none;stroke:#000000;stroke-width:5;stroke-linecap:round;stroke-linejoin:round;stroke-miterlimit:4;stroke-opacity:1;stroke-dasharray:none" />
          <path
             inkscape:connector-curvature="0"
             id="path4586"
             d="m 372.23214,219.68361 2.32143,3.21428"
             style="fill:none;stroke:#000000;stroke-width:5;stroke-linecap:round;stroke-linejoin:round;stroke-miterlimit:4;stroke-opacity:1;stroke-dasharray:none" />
        </g>
        <path
           style="fill:none;stroke:#000000;stroke-width:3;stroke-linecap:round;stroke-linejoin:round;stroke-miterlimit:4;stroke-opacity:1;stroke-dasharray:none"
           d="m 411.02934,101.96795 c 0.1069,0.0107 -4.04377,-11.35191 -5.36643,-13.195122 -1.8164,-2.807989 -10.26778,-3.949585 -10.4172,-1.010153 -0.74898,3.258387 1.56204,5.050724 4.60882,6.881665 3.84618,1.368991 8.30617,3.846599 11.17481,7.32361 z"
           id="path4595"
           inkscape:connector-curvature="0"
           sodipodi:nodetypes="ccccc" />
      </g>
    </g>
    <g
       id="g4679"
       style="fill:#000000;fill-opacity:1;stroke:none"
       transform="translate(-124.30069,-292.14286)"
       inkscape:export-filename="/home/tim/Sync/Code/BuyBananas/img/new categories/gemüse.png"
       inkscape:export-xdpi="339.6163"
       inkscape:export-ydpi="339.6163">
      <path
         sodipodi:nodetypes="cccccccccccscccccccccsccccssccscsccc"
         inkscape:connector-curvature="0"
         id="path4675"
         d="m 224.91071,320.93361 c 2.28619,2.37677 3.43629,2.95708 4.73215,6.11607 0.53571,5.05952 0.26904,11.16264 1.60714,15.17858 1.27647,6.03179 2.1875,6.41369 5.08929,9.41964 1.27605,1.14973 9.33707,4.48366 18.66071,5.17857 12.91559,0.31026 15.80605,-2.62705 20.71429,-4.91072 7.44354,-4.11823 7.66537,-7.40773 8.03571,-10.71428 l 0.98214,-10.35715 c 0.0813,-4.71376 7.3708,-6.33666 7.27679,-8.52678 -0.69142,-3.13106 -5.58002,-1.54653 -8.39286,-2.14286 0.0474,-5.57447 -3.7485,-7.02101 -6.74107,-9.33036 -0.74664,-0.46009 -11.62776,-1.19906 -8.92857,0.80357 1.13639,0.84313 8.91588,3.23169 8.92857,6.07143 0.21698,2.46497 0.42819,4.9221 -0.98214,5.17857 -3.14551,0.15294 -6.65229,-0.14572 -9.375,0.53572 -2.49671,0.62724 -3.88775,3.83828 -9.01786,5.44643 -2.52333,0.33141 -5.03185,0.60357 -7.32143,0 -2.62738,-1.09013 -5.15854,-2.45518 -6.96428,-5.89286 -1.73588,-3.5825 -0.69722,-6.12455 0.35714,-8.66071 1.45833,-1.60307 3.18452,-1.41939 4.375,-3.03572 -2.24664,-1.64129 -6.45722,-1.00642 -8.39286,-0.71429 -3.15306,0.68848 -6.36035,3.62901 -5.89286,4.73214 0.59677,1.40819 5.24045,6.25973 5.71429,9.91072 0.91275,4.15132 -0.27512,6.99433 1.25,8.75 2.05143,3.25901 6.00811,1.97594 7.32143,1.60715 2.09431,-0.9086 4.94464,-2.761 9.46428,-2.94643 0,0 4.03582,0.39894 7.27679,4.19642 1.01807,1.19288 6.63867,-2.16047 8.08036,-1.16071 1.32451,0.9185 -2.20465,6.29124 -4.82143,7.23215 -2.65683,0.36059 -5.10803,0.37847 -7.05357,-0.44643 -2.35604,-2.38396 -5.92893,-4.64038 -7.23215,-4.73215 -3.62315,-0.25514 -4.94146,1.07842 -7.58928,3.21429 -1.53782,1.09711 -6.75091,2.53516 -9.01786,-0.44643 -3.04822,-4.00917 -1.79967,-12.47849 -2.76786,-16.51786 -1.53274,-2.54464 -3.10501,-4.65175 -6.07142,-5.04464 -2.03816,0.46394 -5.42894,-0.64634 -3.30358,2.00893 z"
         style="fill:#000000;fill-opacity:1;stroke:none" />
      <path
         sodipodi:nodetypes="ccccc"
         inkscape:connector-curvature="0"
         id="path4677"
         d="m 248.05558,318.54949 c 2.98923,-10.16381 15.86864,-10.10486 18.59313,-2.14657 0.35329,2.41345 -2.13575,6.10346 -4.07218,3.5671 -2.28234,-6.98699 -9.54132,-4.71867 -6.97637,2.74635 -2.9122,1.04838 -6.65294,-0.42788 -7.54458,-4.16688 z"
         style="fill:#000000;fill-opacity:1;stroke:none" />
    </g>
    <g
       id="g4706"
       transform="matrix(0.91990521,0,0,1,-42.966448,-26.011428)"
       inkscape:export-filename="/home/tim/Sync/Code/BuyBananas/img/new categories/frühstück.png"
       inkscape:export-xdpi="305.93643"
       inkscape:export-ydpi="305.93643">
      <path
         sodipodi:nodetypes="cc"
         inkscape:connector-curvature="0"
         id="path4694"
         d="m 60.104077,117.466 c 0.109347,54.31707 68.641423,53.15317 68.185293,0 z"
         style="fill:#000000;fill-opacity:1;stroke:none" />
      <path
         sodipodi:nodetypes="cc"
         inkscape:connector-curvature="0"
         id="path4696"
         d="m 121.60715,122.8979 c 24.06828,0.0908 24.4333,19.46105 -1.73527,19.71605"
         style="fill:none;stroke:#000000;stroke-width:5;stroke-linecap:butt;stroke-linejoin:miter;stroke-miterlimit:4;stroke-opacity:1;stroke-dasharray:none" />
      <path
         sodipodi:nodetypes="ccc"
         inkscape:connector-curvature="0"
         id="path4700"
         d="m 93.067197,124.13609 c -11.395441,1.73193 -8.989372,20.75803 -0.0854,23.65831 10.385133,-1.2365 13.129873,-21.75392 0.07505,-23.70833"
         style="fill:#ffffff;fill-opacity:1;stroke:none" />
      <path
         sodipodi:nodetypes="cc"
         inkscape:connector-curvature="0"
         id="path4704"
         d="m 94.169361,124.33817 c -6.1035,18.70998 5.879859,5.47207 -1.045278,24.01167"
         style="fill:none;stroke:#000000;stroke-width:2.70561886;stroke-linecap:round;stroke-linejoin:round;stroke-miterlimit:4;stroke-opacity:1;stroke-dasharray:none" />
    </g>
    <g
       id="g4884"
       transform="matrix(1.1824761,0,0,1.1824761,-23.779871,-17.629333)"
       inkscape:export-filename="/home/tim/Sync/Code/BuyBananas/img/new categories/brot.png"
       inkscape:export-xdpi="289.16751"
       inkscape:export-ydpi="289.16751">
      <path
         sodipodi:nodetypes="ccccc"
         inkscape:connector-curvature="0"
         id="path4818"
         d="m 114.71787,104.09124 c -28.122024,11.35699 -7.40175,20.78409 -1.40739,20.57494 0.33509,0.067 42.15512,-0.3351 42.15512,-0.3351 10.70248,-4.24462 9.35631,-12.26491 -1.34037,-18.7654 -7.7182,-3.93946 -31.27375,-4.55072 -39.40736,-1.47444 z"
         style="fill:none;stroke:#000000;stroke-width:5;stroke-linecap:butt;stroke-linejoin:miter;stroke-miterlimit:4;stroke-opacity:1;stroke-dasharray:none" />
      <path
         sodipodi:nodetypes="cc"
         inkscape:connector-curvature="0"
         id="path4820"
         d="m 124.36866,115.01539 c -1.30405,-4.53024 -7.48675,-9.5967 -11.99647,-10.05288"
         style="fill:none;stroke:#000000;stroke-width:4;stroke-linecap:round;stroke-linejoin:round;stroke-miterlimit:4;stroke-opacity:1;stroke-dasharray:none" />
      <path
         sodipodi:nodetypes="cc"
         inkscape:connector-curvature="0"
         id="path4822"
         d="m 135.56089,112.2006 c -3.89581,-5.40686 -7.69266,-8.4682 -11.39329,-9.24867"
         style="fill:none;stroke:#000000;stroke-width:4;stroke-linecap:round;stroke-linejoin:round;stroke-miterlimit:4;stroke-opacity:1;stroke-dasharray:none" />
      <path
         sodipodi:nodetypes="cc"
         inkscape:connector-curvature="0"
         id="path4824"
         d="m 147.35628,112.6027 c -2.17921,-4.47872 -6.67181,-8.37246 -10.18693,-10.25395"
         style="fill:none;stroke:#000000;stroke-width:4;stroke-linecap:round;stroke-linejoin:round;stroke-miterlimit:4;stroke-opacity:1;stroke-dasharray:none" />
      <path
         sodipodi:nodetypes="ccc"
         inkscape:connector-curvature="0"
         id="path4826"
         d="m 119.27519,84.722675 c -3.01845,0.296809 -4.44735,3.950087 -1.07232,6.97001 1.91534,1.737676 2.06804,2.873253 1.47442,5.83068"
         style="fill:none;stroke:#000000;stroke-width:4;stroke-linecap:round;stroke-linejoin:round;stroke-miterlimit:4;stroke-opacity:1;stroke-dasharray:none" />
      <path
         sodipodi:nodetypes="ccc"
         inkscape:connector-curvature="0"
         id="path4828"
         d="m 132.47798,77.082485 c -4.4877,0.593662 -7.20948,7.136632 -3.21691,9.985865 3.21393,2.202818 4.96265,5.298764 2.21163,8.712505"
         style="fill:none;stroke:#000000;stroke-width:4;stroke-linecap:round;stroke-linejoin:round;stroke-miterlimit:4;stroke-opacity:1;stroke-dasharray:none" />
      <path
         sodipodi:nodetypes="ccc"
         inkscape:connector-curvature="0"
         id="path4826-1"
         d="m 145.76506,84.220033 c -3.01845,0.296808 -4.78245,2.944801 -1.40741,5.964725 1.91534,1.737676 2.60419,3.610463 1.00529,6.70192"
         style="fill:none;stroke:#000000;stroke-width:4;stroke-linecap:round;stroke-linejoin:round;stroke-miterlimit:4;stroke-opacity:1;stroke-dasharray:none" />
    </g>
    <g
       id="g4944"
       transform="matrix(1.7255989,0,0,1.7255989,-150.81647,-158.04323)"
       inkscape:export-filename="/home/tim/Sync/Code/BuyBananas/img/new categories/fleisch.png"
       inkscape:export-xdpi="361.61865"
       inkscape:export-ydpi="361.61865">
      <path
         sodipodi:nodetypes="cccccc"
         inkscape:connector-curvature="0"
         id="path4893"
         d="m 102.40421,198.65701 c -7.844037,-2.59185 -6.994617,-6.44342 -1.76777,-8.14435 11.68357,-5.95896 9.42729,-12.58144 20.645,-13.00571 6.93456,-0.54138 8.39881,5.55292 9.02824,11.93242 1.05489,10.05299 -4.88253,11.7988 -9.02824,10.92228 -6.82097,-2.08956 -13.02703,-1.34322 -18.87723,-1.70464 z"
         style="fill:none;stroke:#000000;stroke-width:3;stroke-linecap:butt;stroke-linejoin:miter;stroke-miterlimit:4;stroke-opacity:1;stroke-dasharray:none" />
      <path
         sodipodi:nodetypes="cccccc"
         inkscape:connector-curvature="0"
         id="path4893-6"
         d="m 107.58902,196.14245 c -5.53517,-1.82895 -4.93578,-4.54682 -1.24743,-5.74709 8.24455,-4.20496 6.65239,-8.87813 14.56821,-9.17752 4.89339,-0.38203 5.92665,3.91843 6.37081,8.42015 0.74438,7.09393 -3.44538,8.32586 -6.37081,7.70734 -4.81324,-1.4745 -9.19257,-0.94785 -13.32078,-1.20288 z"
         style="fill:#000000;fill-opacity:1;stroke:none" />
      <path
         sodipodi:nodetypes="cccccc"
         inkscape:connector-curvature="0"
         id="path4893-6-5"
         d="m 118.2159,187.64275 c -0.28976,-1.68377 2.50399,-2.80485 3.36574,-2.00931 2.34709,1.57289 1.49925,0.71089 2.71942,2.72551 0.80871,1.2188 -0.23155,2.06736 -1.41209,2.79018 -1.85406,1.15047 -2.79658,0.2292 -3.046,-0.61383 -0.284,-1.44852 -1.33184,-1.14946 -1.62707,-2.89255 z"
         style="fill:#ffffff;fill-opacity:1;stroke:none" />
    </g>
    <g
       id="g4969"
       transform="matrix(2.0398347,0,0,2.0398347,-662.32624,-97.598712)"
       inkscape:export-filename="/home/tim/Sync/Code/BuyBananas/img/new categories/backwaren.png"
       inkscape:export-xdpi="324.88568"
       inkscape:export-ydpi="324.88568">
      <path
         sodipodi:nodetypes="ccccc"
         inkscape:connector-curvature="0"
         id="path4949-1"
         d="m 400.32791,136.79511 c -2.27761,6.54268 -7.82939,8.13957 -13.12769,6.94388 -11.26957,-3.70876 -13.65841,-11.07835 -13.21515,-12.70107 0.61454,-2.71436 7.66649,-7.13241 16.91669,-5.27262 6.04821,1.81407 10.03079,3.99262 9.42615,11.02981 z"
         style="fill:#000000;fill-opacity:1;stroke:#ffffff;stroke-width:2;stroke-linecap:round;stroke-linejoin:round;stroke-miterlimit:4;stroke-opacity:1;stroke-dasharray:none" />
      <path
         sodipodi:nodetypes="ccccc"
         inkscape:connector-curvature="0"
         id="path4949"
         d="m 398.45978,143.66314 c -6.88213,-0.794 -9.65277,-5.86311 -9.64286,-11.29464 1.15845,-11.80746 7.82858,-15.74787 9.50893,-15.66964 2.78305,0.007 8.63434,5.92406 8.83929,15.35714 -0.44961,6.29837 -1.70596,10.66055 -8.70536,11.60714 z"
         style="fill:#000000;fill-opacity:1;stroke:#ffffff;stroke-width:1;stroke-linecap:round;stroke-linejoin:round;stroke-miterlimit:4;stroke-opacity:1;stroke-dasharray:none" />
    </g>
    <g
       id="g5980"
       transform="matrix(1.0175691,0,0,0.93556068,0.21397139,10.052988)"
       inkscape:export-filename="/home/tim/Sync/Code/BuyBananas/img/new categories/süßigkeiten.png"
       inkscape:export-xdpi="316.99857"
       inkscape:export-ydpi="316.99857">
      <path
         transform="matrix(3.2660852,0,0,3.2660852,-1406.8875,-1076.5486)"
         d="m 474.73214,396.38004 c 0,2.29296 -1.85882,4.15178 -4.15179,4.15178 -2.29297,0 -4.15178,-1.85882 -4.15178,-4.15178 0,-2.29297 1.85881,-4.15179 4.15178,-4.15179 2.29297,0 4.15179,1.85882 4.15179,4.15179 z"
         sodipodi:ry="4.1517859"
         sodipodi:rx="4.1517859"
         sodipodi:cy="396.38004"
         sodipodi:cx="470.58035"
         id="path5006"
         style="fill:#000000;fill-opacity:1;stroke:none"
         sodipodi:type="arc" />
      <path
         sodipodi:nodetypes="cscccccccccccccccc"
         inkscape:connector-curvature="0"
         id="path5008"
         d="m 122.2492,227.4946 c 0.70525,0.23892 -1.05747,6.69968 -3.60421,5.29372 -2.98682,-1.64889 -14.48517,-1.28027 -14.64221,-0.33789 -0.90558,2.10846 -1.90988,4.14291 -0.33791,8.10955 5.71728,0.23066 11.15066,0.31911 16.44433,0.33787 -0.0186,9.08577 -0.58661,17.67671 0.86006,23.83141 -4.74935,3.29973 -8.31517,7.07233 -10.20854,11.53516 0.80433,4.29117 3.15807,5.09613 5.63161,5.63161 4.47163,-3.89942 9.03222,-11.10488 13.34529,-12.02997 6.65567,-0.007 8.05488,6.91489 12.56017,10.96965 5.29716,3.02105 8.76901,0.22554 7.51102,-6.24711 -2.41966,-3.92949 -4.41938,-5.94397 -9.53842,-9.36215 0.97455,-7.62546 0.70756,-15.11295 -0.2253,-22.52647 5.25615,-1.41273 10.51235,-0.88445 15.76853,-0.67581 2.99794,-0.84615 7.50215,-6.37847 -0.78844,-10.24955 -4.89308,-0.37862 -9.10281,-0.97077 -17.23273,-0.33789 -0.91347,-0.65102 -1.03569,-2.88449 -1.35161,-4.73057 z"
         style="fill:#000000;fill-opacity:1;stroke:none" />
      <path
         transform="matrix(1.6758396,0,0,1.6758396,-628.50203,-463.47425)"
         d="m 451.74106,406.35773 c 0,0.92458 -0.74952,1.6741 -1.6741,1.6741 -0.92459,0 -1.67411,-0.74952 -1.67411,-1.6741 0,-0.92459 0.74952,-1.67411 1.67411,-1.67411 0.92458,0 1.6741,0.74952 1.6741,1.67411 z"
         sodipodi:ry="1.6741072"
         sodipodi:rx="1.6741072"
         sodipodi:cy="406.35773"
         sodipodi:cx="450.06696"
         id="path5010"
         style="fill:#ffffff;fill-opacity:1;stroke:none"
         sodipodi:type="arc" />
      <path
         transform="matrix(1.6758396,0,0,1.6758396,-619.56587,-463.57817)"
         d="m 451.74106,406.35773 c 0,0.92458 -0.74952,1.6741 -1.6741,1.6741 -0.92459,0 -1.67411,-0.74952 -1.67411,-1.6741 0,-0.92459 0.74952,-1.67411 1.67411,-1.67411 0.92458,0 1.6741,0.74952 1.6741,1.67411 z"
         sodipodi:ry="1.6741072"
         sodipodi:rx="1.6741072"
         sodipodi:cy="406.35773"
         sodipodi:cx="450.06696"
         id="path5010-5"
         style="fill:#ffffff;fill-opacity:1;stroke:none"
         sodipodi:type="arc" />
      <path
         transform="matrix(1.6758396,0,0,1.6758396,-623.93004,-439.05573)"
         d="m 451.74106,406.35773 c 0,0.92458 -0.74952,1.6741 -1.6741,1.6741 -0.92459,0 -1.67411,-0.74952 -1.67411,-1.6741 0,-0.92459 0.74952,-1.67411 1.67411,-1.67411 0.92458,0 1.6741,0.74952 1.6741,1.67411 z"
         sodipodi:ry="1.6741072"
         sodipodi:rx="1.6741072"
         sodipodi:cy="406.35773"
         sodipodi:cx="450.06696"
         id="path5010-1"
         style="fill:#ffffff;fill-opacity:1;stroke:none"
         sodipodi:type="arc" />
      <path
         transform="matrix(1.6758396,0,0,1.6758396,-623.82611,-431.88602)"
         d="m 451.74106,406.35773 c 0,0.92458 -0.74952,1.6741 -1.6741,1.6741 -0.92459,0 -1.67411,-0.74952 -1.67411,-1.6741 0,-0.92459 0.74952,-1.67411 1.67411,-1.67411 0.92458,0 1.6741,0.74952 1.6741,1.67411 z"
         sodipodi:ry="1.6741072"
         sodipodi:rx="1.6741072"
         sodipodi:cy="406.35773"
         sodipodi:cx="450.06696"
         id="path5010-3"
         style="fill:#ffffff;fill-opacity:1;stroke:none"
         sodipodi:type="arc" />
      <path
         transform="matrix(1.6758396,0,0,1.6758396,-623.82611,-425.02804)"
         d="m 451.74106,406.35773 c 0,0.92458 -0.74952,1.6741 -1.6741,1.6741 -0.92459,0 -1.67411,-0.74952 -1.67411,-1.6741 0,-0.92459 0.74952,-1.67411 1.67411,-1.67411 0.92458,0 1.6741,0.74952 1.6741,1.67411 z"
         sodipodi:ry="1.6741072"
         sodipodi:rx="1.6741072"
         sodipodi:cy="406.35773"
         sodipodi:cx="450.06696"
         id="path5010-2"
         style="fill:#ffffff;fill-opacity:1;stroke:none"
         sodipodi:type="arc" />
      <path
         transform="matrix(1.6758396,0,0,0.74481765,-624.03394,-77.35317)"
         d="m 451.74106,406.35773 c 0,0.92458 -0.74952,1.6741 -1.6741,1.6741 -0.92459,0 -1.67411,-0.74952 -1.67411,-1.6741 0,-0.92459 0.74952,-1.67411 1.67411,-1.67411 0.92458,0 1.6741,0.74952 1.6741,1.67411 z"
         sodipodi:ry="1.6741072"
         sodipodi:rx="1.6741072"
         sodipodi:cy="406.35773"
         sodipodi:cx="450.06696"
         id="path5010-28"
         style="fill:#ffffff;fill-opacity:1;stroke:none"
         sodipodi:type="arc" />
    </g>
    <g
       id="g5139"
       transform="matrix(2.3439733,0,0,2.3439733,-858.71433,-1398.6929)"
       inkscape:export-filename="/home/tim/Sync/Code/BuyBananas/img/new categories/haushaltswaren.png"
       inkscape:export-xdpi="243.65041"
       inkscape:export-ydpi="243.65041">
      <path
         sodipodi:nodetypes="ccccccccccccscsc"
         inkscape:connector-curvature="0"
         id="path5106"
         d="m 378.45997,727.69284 c -0.62541,0.89909 -0.7705,1.82643 0.0316,2.80949 1.34029,0.0504 2.61311,-0.16899 2.08344,0.69448 -1.65229,1.94044 -2.43123,3.2285 -3.03045,5.05076 0.26105,0.60931 0.77047,0.82123 1.45209,0.75762 1.54384,-2.67625 2.72819,-4.18415 3.59867,-4.67196 0.93187,0.28236 1.42153,1.25962 1.76777,2.46225 0.19601,2.56416 0.2865,4.99169 -0.31568,8.14435 -2.39217,1.44573 -4.09776,4.11205 -5.74524,6.88167 -0.47351,4.94554 -0.8412,8.2211 0.37881,18.05647 l 13.32138,-0.12626 c 0.87014,-8.35116 0.29742,-17.95884 -1.51523,-24.87501 -1.08395,-4.84166 -0.0934,-9.96454 0.12627,-10.79601 0.13329,-0.50463 2.10198,-2.12163 2.55695,-1.76776 0.44467,-0.22006 0.69174,-2.30533 0.0947,-2.58852 -0.22817,-0.10823 -14.80505,-0.0316 -14.80505,-0.0316 z"
         style="fill:#000000;fill-opacity:1;stroke:none" />
      <rect
         ry="2.5886257"
         rx="2.0156889"
         y="750.26343"
         x="379.97519"
         height="15.117432"
         width="10.435286"
         id="rect5108"
         style="fill:#ffffff;fill-opacity:1;stroke:none" />
      <rect
         ry="1.1761678"
         rx="0.58187169"
         y="735.46509"
         x="385.71582"
         height="6.8687553"
         width="3.012368"
         id="rect5108-4"
         style="fill:#ffffff;fill-opacity:1;stroke:none" />
    </g>
    <path
       style="fill:none;stroke:#000000;stroke-width:1.10055196px;stroke-linecap:butt;stroke-linejoin:miter;stroke-opacity:1"
       d="M 133.82202,297.98759"
       id="path4673"
       inkscape:connector-curvature="0" />
    <g
       id="g5290"
       transform="translate(0.43542535,0)"
       inkscape:export-filename="/home/tim/Sync/Code/BuyBananas/img/new categories/drogerie.png"
       inkscape:export-xdpi="268.82138"
       inkscape:export-ydpi="268.82138">
      <path
         sodipodi:nodetypes="ccccccc"
         inkscape:connector-curvature="0"
         id="path5166"
         d="m 102.22602,326.71737 5.55862,50.44453 c 0.95547,3.39841 3.60574,4.57239 5.97552,6.1145 l 11.95105,-0.27794 c 3.69199,-2.13081 4.83309,-4.26161 5.6976,-6.39242 l 4.86379,-50.02764 z"
         style="fill:#000000;fill-opacity:1;stroke:#000000;stroke-width:1.10055196px;stroke-linecap:round;stroke-linejoin:round;stroke-opacity:1" />
      <rect
         y="319.44348"
         x="101.42596"
         height="4.377419"
         width="35.334064"
         id="rect5168"
         style="fill:#000000;fill-opacity:1;stroke:none" />
      <rect
         y="347.68207"
         x="109.77128"
         height="13.319404"
         width="18.924049"
         id="rect5168-7"
         style="fill:#ffffff;fill-opacity:1;stroke:none" />
      <path
         sodipodi:nodetypes="ccccc"
         inkscape:connector-curvature="0"
         id="rect5168-3"
         d="m 110.93697,385.74239 16.67793,0 -1.11172,15.28623 c -4.58495,1.76342 -9.38382,2.06506 -14.52396,0.0348 z"
         style="fill:#000000;fill-opacity:1;stroke:none" />
      <g
         id="g5240">
        <g
           id="g5230"
           transform="matrix(1.3608986,0,0,1.2758038,-132.46488,-110.04353)">
          <path
             inkscape:connector-curvature="0"
             id="path5214"
             d="m 201.96429,337.80861 0,15.44643 3.75,8.21428 0,39.01786"
             style="fill:none;stroke:#000000;stroke-width:4;stroke-linecap:round;stroke-linejoin:round;stroke-miterlimit:4;stroke-opacity:1;stroke-dasharray:none" />
          <path
             inkscape:connector-curvature="0"
             id="path5216"
             d="m 208.15456,338.37373 -6.15562,0.41038"
             style="fill:none;stroke:#000000;stroke-width:2;stroke-linecap:round;stroke-linejoin:round;stroke-miterlimit:4;stroke-opacity:1;stroke-dasharray:none" />
          <path
             inkscape:connector-curvature="0"
             id="path5218"
             d="m 208.18613,341.53046 -5.93465,0.41037"
             style="fill:none;stroke:#000000;stroke-width:2;stroke-linecap:round;stroke-linejoin:round;stroke-miterlimit:4;stroke-opacity:1;stroke-dasharray:none" />
          <path
             inkscape:connector-curvature="0"
             id="path5220"
             d="m 208.12299,344.71875 -5.83994,0.25254"
             style="fill:none;stroke:#000000;stroke-width:2;stroke-linecap:round;stroke-linejoin:round;stroke-miterlimit:4;stroke-opacity:1;stroke-dasharray:none" />
          <path
             inkscape:connector-curvature="0"
             id="path5222"
             d="m 208.09143,347.62294 -5.68211,0.37881"
             style="fill:none;stroke:#000000;stroke-width:2;stroke-linecap:round;stroke-linejoin:round;stroke-miterlimit:4;stroke-opacity:1;stroke-dasharray:none" />
          <path
             inkscape:connector-curvature="0"
             id="path5224"
             d="m 208.09143,350.87437 -5.65054,0.25254"
             style="fill:none;stroke:#000000;stroke-width:2;stroke-linecap:round;stroke-linejoin:round;stroke-miterlimit:4;stroke-opacity:1;stroke-dasharray:none" />
          <path
             sodipodi:nodetypes="cccccccccc"
             inkscape:connector-curvature="0"
             id="path5226"
             d="m 212.54241,351.63199 c -0.79422,-0.40168 -1.43037,0.0145 -2.115,-1.29426 -0.51121,-1.33092 -0.55392,-6.42979 -0.31568,-9.43861 0.20259,-1.41425 0.91965,-2.70977 1.89404,-3.94591 0.98391,-0.6839 2.1676,-1.19656 4.38785,-0.82075 0.77335,0.52671 1.74017,0.8019 1.95717,2.05187 -0.54127,-0.0307 -1.06871,-0.043 -1.95717,-0.53664 -1.14274,0.41547 -1.49928,1.16196 -1.51523,2.05187 0.13179,3.25573 0.83862,5.27291 0.28411,10.00683 -0.37267,1.1416 -0.8509,2.17784 -2.62009,1.9256 z"
             style="fill:#000000;fill-opacity:1;stroke:#000000;stroke-width:1px;stroke-linecap:round;stroke-linejoin:round;stroke-opacity:1" />
          <path
             sodipodi:nodetypes="ccccc"
             inkscape:connector-curvature="0"
             id="path5228"
             d="m 211.74603,344.40074 c -0.11599,0.13993 -0.16261,1.22445 -0.18741,2.60598 0.0259,0.8498 0.0435,1.73308 0.26773,1.78305 0.1181,-0.29757 0.16752,-1.17712 0.18358,-1.84019 -0.0141,-1.36277 -0.10993,-2.15812 -0.2639,-2.54884 z"
             style="fill:#ffffff;stroke:#ffffff;stroke-width:0.4188973;stroke-linecap:round;stroke-linejoin:round;stroke-opacity:1" />
        </g>
      </g>
    </g>
    <g
       id="g6024"
       inkscape:export-filename="/home/tim/Sync/Code/BuyBananas/img/new categories/rest.png"
       inkscape:export-xdpi="344.3038"
       inkscape:export-ydpi="344.3038">
      <rect
         ry="3.3805377"
         rx="3.6178992"
         y="427.59363"
         x="12.452807"
         height="64.894249"
         width="65.251396"
         id="rect5306"
         style="fill:#000000;fill-opacity:1;stroke:#ffffff;stroke-width:1.74860263;stroke-linecap:round;stroke-linejoin:round;stroke-miterlimit:4;stroke-opacity:1;stroke-dasharray:none" />
      <text
         transform="scale(1.0146426,0.98556871)"
         sodipodi:linespacing="125%"
         id="text5308"
         y="487.75049"
         x="20.973417"
         style="font-size:75.53799438px;font-style:normal;font-variant:normal;font-weight:300;font-stretch:normal;line-height:125%;letter-spacing:0px;word-spacing:0px;fill:#ffffff;fill-opacity:1;stroke:none;font-family:Roboto;-inkscape-font-specification:Roboto Light"
         xml:space="preserve"><tspan
           style="font-style:normal;font-variant:normal;font-weight:bold;font-stretch:normal;font-family:FreeMono;-inkscape-font-specification:FreeMono Bold"
           y="487.75049"
           x="20.973417"
           id="tspan5310"
           sodipodi:role="line">?</tspan></text>
    </g>
    <g
       id="g5389"
       transform="matrix(0.55258674,0,0,0.55258674,-48.08756,234.01056)"
       inkscape:export-filename="/home/tim/Sync/Code/BuyBananas/img/new categories/nudeln.png"
       inkscape:export-xdpi="336.55811"
       inkscape:export-ydpi="336.55811">
      <path
         inkscape:connector-curvature="0"
         id="path5323"
         d="m 271.25,447.36218 22.32143,16.96429 70.53571,0.17857 23.03572,-16.96429 z"
         style="fill:#000000;fill-opacity:1;stroke:#000000;stroke-width:8;stroke-linecap:round;stroke-linejoin:round;stroke-miterlimit:4;stroke-opacity:1;stroke-dasharray:none" />
      <path
         transform="matrix(0.44681541,0.89462617,-0.89462617,0.44681541,544.0292,-20.87343)"
         d="m 302.79321,425.43625 c 1.20921,-0.15194 0.8014,1.55502 0.25254,2.00978 -1.48737,1.23237 -3.58079,-0.01 -4.2721,-1.5047 -1.2366,-2.67394 0.67682,-5.63709 3.26194,-6.53443 3.79377,-1.31688 7.72852,1.34352 8.79675,5.01919 1.42379,4.89909 -2.00889,9.83337 -6.77643,11.05907 -5.99945,1.54242 -11.94486,-2.67334 -13.32139,-8.53367 -1.66717,-7.09765 3.33721,-14.06013 10.29092,-15.58372 8.1947,-1.7955 16.17775,4.0007 17.84603,12.04816 1.9261,9.29111 -4.66394,18.29696 -13.8054,20.10836 -10.3871,2.05823 -20.41728,-5.32702 -22.37068,-15.56265 -2.19143,-11.48282 5.98997,-22.53839 17.31989,-24.633 12.57836,-2.32541 24.66011,6.65283 26.89532,19.07713"
         sodipodi:t0="0"
         sodipodi:argument="-18.974556"
         sodipodi:radius="24.307041"
         sodipodi:revolution="3"
         sodipodi:expansion="1"
         sodipodi:cy="425.43625"
         sodipodi:cx="302.79321"
         id="path5325"
         style="fill:none;stroke:#000000;stroke-width:4.5;stroke-linecap:butt;stroke-linejoin:miter;stroke-miterlimit:4;stroke-opacity:1;stroke-dasharray:none"
         sodipodi:type="spiral" />
      <path
         transform="matrix(-0.31536245,0.63142741,0.63142741,0.31536245,146.17601,110.0066)"
         d="m 302.79321,425.43625 c 1.20921,-0.15194 0.8014,1.55502 0.25254,2.00978 -1.48737,1.23237 -3.58079,-0.01 -4.2721,-1.5047 -1.2366,-2.67394 0.67682,-5.63709 3.26194,-6.53443 3.79377,-1.31688 7.72852,1.34352 8.79675,5.01919 1.42379,4.89909 -2.00889,9.83337 -6.77643,11.05907 -5.99945,1.54242 -11.94486,-2.67334 -13.32139,-8.53367 -1.66717,-7.09765 3.33721,-14.06013 10.29092,-15.58372 8.1947,-1.7955 16.17775,4.0007 17.84603,12.04816 1.9261,9.29111 -4.66394,18.29696 -13.8054,20.10836 -10.3871,2.05823 -20.41728,-5.32702 -22.37068,-15.56265 -2.19143,-11.48282 5.98997,-22.53839 17.31989,-24.633 12.57836,-2.32541 24.66011,6.65283 26.89532,19.07713"
         sodipodi:t0="0"
         sodipodi:argument="-18.974556"
         sodipodi:radius="24.307041"
         sodipodi:revolution="3"
         sodipodi:expansion="1"
         sodipodi:cy="425.43625"
         sodipodi:cx="302.79321"
         id="path5325-5"
         style="fill:none;stroke:#000000;stroke-width:6.375741;stroke-linecap:butt;stroke-linejoin:miter;stroke-miterlimit:4;stroke-opacity:1;stroke-dasharray:none"
         sodipodi:type="spiral" />
      <path
         transform="matrix(0.44681541,0.89462617,-0.89462617,0.44681541,596.09446,-18.997943)"
         d="m 302.79321,425.43625 c 1.20921,-0.15194 0.8014,1.55502 0.25254,2.00978 -1.48737,1.23237 -3.58079,-0.01 -4.2721,-1.5047 -1.2366,-2.67394 0.67682,-5.63709 3.26194,-6.53443 3.79377,-1.31688 7.72852,1.34352 8.79675,5.01919 1.42379,4.89909 -2.00889,9.83337 -6.77643,11.05907 -5.99945,1.54242 -11.94486,-2.67334 -13.32139,-8.53367 -1.66717,-7.09765 3.33721,-14.06013 10.29092,-15.58372 8.1947,-1.7955 16.17775,4.0007 17.84603,12.04816 1.9261,9.29111 -4.66394,18.29696 -13.8054,20.10836 -10.3871,2.05823 -20.41728,-5.32702 -22.37068,-15.56265 -2.19143,-11.48282 5.98997,-22.53839 17.31989,-24.633 12.57836,-2.32541 24.66011,6.65283 26.89532,19.07713"
         sodipodi:t0="0"
         sodipodi:argument="-18.974556"
         sodipodi:radius="24.307041"
         sodipodi:revolution="3"
         sodipodi:expansion="1"
         sodipodi:cy="425.43625"
         sodipodi:cx="302.79321"
         id="path5325-9"
         style="fill:none;stroke:#000000;stroke-width:4.5;stroke-linecap:butt;stroke-linejoin:miter;stroke-miterlimit:4;stroke-opacity:1;stroke-dasharray:none"
         sodipodi:type="spiral" />
      <path
         transform="matrix(-0.31536245,0.63142741,0.63142741,0.31536245,163.5241,119.66618)"
         d="m 302.79321,425.43625 c 1.20921,-0.15194 0.8014,1.55502 0.25254,2.00978 -1.48737,1.23237 -3.58079,-0.01 -4.2721,-1.5047 -1.2366,-2.67394 0.67682,-5.63709 3.26194,-6.53443 3.79377,-1.31688 7.72852,1.34352 8.79675,5.01919 1.42379,4.89909 -2.00889,9.83337 -6.77643,11.05907 -5.99945,1.54242 -11.94486,-2.67334 -13.32139,-8.53367 -1.66717,-7.09765 3.33721,-14.06013 10.29092,-15.58372 8.1947,-1.7955 16.17775,4.0007 17.84603,12.04816 1.9261,9.29111 -4.66394,18.29696 -13.8054,20.10836 -10.3871,2.05823 -20.41728,-5.32702 -22.37068,-15.56265 -2.19143,-11.48282 5.98997,-22.53839 17.31989,-24.633 12.57836,-2.32541 24.66011,6.65283 26.89532,19.07713"
         sodipodi:t0="0"
         sodipodi:argument="-18.974556"
         sodipodi:radius="24.307041"
         sodipodi:revolution="3"
         sodipodi:expansion="1"
         sodipodi:cy="425.43625"
         sodipodi:cx="302.79321"
         id="path5325-5-7"
         style="fill:none;stroke:#000000;stroke-width:6.375741;stroke-linecap:butt;stroke-linejoin:miter;stroke-miterlimit:4;stroke-opacity:1;stroke-dasharray:none"
         sodipodi:type="spiral" />
      <path
         sodipodi:nodetypes="ccccccccccccccccc"
         inkscape:connector-curvature="0"
         id="path5381"
         d="m 385.44896,365.98878 0,12.2481 -67.33205,-2.033 c -2.71028,5.27654 -2.81963,10.64936 -13.53245,12.37437 l -33.72282,-0.0893 c -4.10679,-1.85746 -1.19134,-5.19075 0.0893,-6.59926 l 25.658,-0.27419 c 2.62431,-3.4249 2.22654,-3.87116 1.21301,-6.1629 l -26.82769,-0.074 c -3.13761,-1.57445 -2.10148,-4.74011 -0.28951,-6.07886 l 27.59428,0.009 c 1.81609,-2.61233 0.84158,-5.1983 -2.50635,-6.67694 l -24.68484,-0.48975 c -2.77468,-1.29102 -2.93214,-3.151 -0.23087,-5.63244 l 34.85026,-0.43745 c 5.99841,0.22224 11.07079,5.51264 13.17794,11.93691 z"
         style="fill:#000000;fill-opacity:1;stroke:#000000;stroke-width:2;stroke-linecap:round;stroke-linejoin:round;stroke-miterlimit:4;stroke-opacity:1;stroke-dasharray:none" />
      <path
         inkscape:connector-curvature="0"
         id="path5383"
         d="m 276.24283,352.82969 -0.0893,38.75"
         style="fill:none;stroke:#000000;stroke-width:5;stroke-linecap:round;stroke-linejoin:round;stroke-miterlimit:4;stroke-opacity:1;stroke-dasharray:none" />
      <path
         inkscape:connector-curvature="0"
         id="path5385"
         d="m 284.63568,352.47255 0.17857,39.375"
         style="fill:none;stroke:#000000;stroke-width:5;stroke-linecap:round;stroke-linejoin:round;stroke-miterlimit:4;stroke-opacity:1;stroke-dasharray:none" />
      <path
         sodipodi:nodetypes="cccc"
         inkscape:connector-curvature="0"
         id="path5387"
         d="m 291.51068,366.13326 c 0.2081,10.47828 -0.22275,32.14467 0.44643,33.03572 1.78095,2.26167 6.08473,3.74595 5.625,9.82143 -1.85249,2.39493 -3.18543,2.36536 -4.55357,2.5"
         style="fill:none;stroke:#000000;stroke-width:5;stroke-linecap:round;stroke-linejoin:round;stroke-miterlimit:4;stroke-opacity:1;stroke-dasharray:none" />
    </g>
    <g
       id="g5484"
       transform="matrix(0.39562234,0,0,0.39562234,-170.83182,396.92776)"
       inkscape:export-filename="/home/tim/Sync/Code/BuyBananas/img/new categories/konserven.png"
       inkscape:export-xdpi="370.69275"
       inkscape:export-ydpi="370.69275">
      <rect
         ry="4.1865454"
         rx="3.6178992"
         y="310.11218"
         x="487"
         height="133.75"
         width="116.75"
         id="rect5431"
         style="fill:#000000;fill-opacity:1;stroke:none" />
      <path
         sodipodi:nodetypes="ccc"
         inkscape:connector-curvature="0"
         id="path5411"
         d="m 488.29614,310.87189 c 3.14586,-11.81677 108.23785,-12.52406 114.90485,0 -2.45668,13.4842 -114.22799,14.27881 -114.90485,0 z"
         style="fill:#ffffff;fill-opacity:1;stroke:#000000;stroke-width:6;stroke-linecap:round;stroke-linejoin:round;stroke-miterlimit:4;stroke-opacity:1;stroke-dasharray:none" />
      <path
         sodipodi:nodetypes="ccc"
         inkscape:connector-curvature="0"
         id="path5411-9"
         d="m 488.29614,442.10555 c 3.14586,-11.81677 108.23785,-12.52406 114.90485,0 -2.45668,13.4842 -114.22799,14.27881 -114.90485,0 z"
         style="fill:#000000;fill-opacity:1;stroke:#000000;stroke-width:6;stroke-linecap:round;stroke-linejoin:round;stroke-miterlimit:4;stroke-opacity:1;stroke-dasharray:none" />
      <path
         sodipodi:nodetypes="ccccc"
         inkscape:connector-curvature="0"
         id="rect5433"
         d="m 506.62868,344.36218 c 26.77943,3.17659 52.91017,2.461 78.75,0 l 0,79.5 c -26.48694,4.97584 -52.73446,4.9236 -78.75,0 z"
         style="fill:#ffffff;fill-opacity:1;stroke:none" />
      <path
         sodipodi:nodetypes="cssscc"
         inkscape:connector-curvature="0"
         id="path5478"
         d="m 533.90434,370.35248 c -5.65596,3.67724 -13.24267,13.78517 -8.92723,25.45586 4.02339,10.88083 13.8513,15.76513 20.50611,15.55634 10.47745,-0.32872 20.82604,-9.71477 22.09708,-19.18028 2.04697,-15.24385 -5.94724,-18.73196 -7.24784,-20.4177 -7.18867,-4.77471 -16.42043,-7.75865 -26.42812,-1.41422 z"
         style="fill:#000000;fill-opacity:1;stroke:#000000;stroke-width:1px;stroke-linecap:butt;stroke-linejoin:miter;stroke-opacity:1" />
      <path
         sodipodi:nodetypes="cccssccc"
         inkscape:connector-curvature="0"
         id="path5480"
         d="m 541,367.36218 c -4.15874,1.21324 -6.38616,3.94565 -7.25,7 3.27719,-0.65643 8.66947,-2.64212 9,-1.4375 -0.26105,0.87017 1.12766,7.16994 2.625,7.8125 1.20501,0.51711 3.0405,-5.63648 3.875,-7.625 0.42252,-1.0068 9.68114,1.38454 9.3125,1.9375 -1.7368,-2.75671 -2.31357,-6.11486 -7.375,-7.5 -3.33399,-0.68089 -6.68904,-1.15123 -10.1875,-0.1875 z"
         style="fill:#ffffff;fill-opacity:1;stroke:#000000;stroke-width:1px;stroke-linecap:butt;stroke-linejoin:miter;stroke-opacity:1" />
      <path
         transform="translate(185.75,-19.75)"
         d="m 362.1875,390.08093 c 0,0.56955 -0.9374,1.03125 -2.09375,1.03125 -1.15635,0 -2.09375,-0.4617 -2.09375,-1.03125 0,-0.56954 0.9374,-1.03125 2.09375,-1.03125 1.15635,0 2.09375,0.46171 2.09375,1.03125 z"
         sodipodi:ry="1.03125"
         sodipodi:rx="2.09375"
         sodipodi:cy="390.08093"
         sodipodi:cx="360.09375"
         id="path5482"
         style="fill:#000000;fill-opacity:1;stroke:none"
         sodipodi:type="arc" />
    </g>
    <g
       id="g5648"
       transform="translate(6.679782,0)"
       inkscape:export-filename="/home/tim/Sync/Code/BuyBananas/img/new categories/snacks.png"
       inkscape:export-xdpi="283.76138"
       inkscape:export-ydpi="283.76138">
      <path
         sodipodi:nodetypes="cccccc"
         inkscape:connector-curvature="0"
         id="path5506-4-6-7"
         d="m 122.02044,528.28059 c -3.40909,4.17211 -6.95277,7.85042 -12.88584,2.76259 -2.42945,-3.25667 -1.91025,-5.08971 -0.54829,-6.51585 2.41833,-1.94175 2.71777,0.57935 5.76821,0.15299 5.19087,-3.22231 4.49582,-1.65376 5.77727,-1.69399 1.3134,1.08784 2.27281,2.52607 1.88865,5.29426 z"
         style="fill:#000000;fill-opacity:1;stroke:#000000;stroke-width:0.58401936;stroke-linecap:round;stroke-linejoin:round;stroke-miterlimit:4;stroke-opacity:1;stroke-dasharray:none" />
      <path
         sodipodi:nodetypes="cccccccccccc"
         inkscape:connector-curvature="0"
         id="path5504"
         d="m 107.56476,532.72472 c 2.42264,5.48813 3.15443,6.43442 3.99873,19.84179 0.59068,6.17753 -2.44463,5.85886 -2.02467,14.67887 -1.30844,7.03585 -4.29713,5.96187 -6.78265,16.14676 4.9166,1.60544 8.61915,1.23804 12.50235,1.16419 l 18.82945,0 c 9.54499,-2.59878 8.97691,0.93159 17.44034,1.91116 -4.14618,-6.85538 -0.90574,-7.68634 -3.69713,-15.28628 -1.79923,-7.3935 -0.0859,-15.43249 -2.62488,-22.15788 1.99973,-6.18261 1.67288,-10.10176 5.28151,-17.00724 -3.72489,-1.66672 -8.93753,0.64034 -16.60231,0.40493 -11.08231,1.74193 -17.12578,-2.39101 -26.32074,0.3037 z"
         style="fill:#000000;fill-opacity:1;stroke:#ffffff;stroke-width:1.01233602;stroke-linecap:round;stroke-linejoin:round;stroke-miterlimit:4;stroke-opacity:1;stroke-dasharray:none" />
      <path
         sodipodi:nodetypes="cccccc"
         inkscape:connector-curvature="0"
         id="path5506"
         d="m 110.84768,522.75798 c -2.47017,-4.86838 -4.41115,-9.67685 3.04228,-13.42181 4.16865,-1.08426 5.68464,0.1157 6.44246,1.96853 0.78359,3.06383 -1.74754,2.38593 -2.68436,5.4761 0.78202,6.21438 -0.40486,4.94694 -0.93058,6.19193 -1.61335,0.84373 -3.40439,1.21366 -5.8698,-0.21475 z"
         style="fill:#000000;fill-opacity:1;stroke:#000000;stroke-width:0.60740161;stroke-linecap:round;stroke-linejoin:round;stroke-miterlimit:4;stroke-opacity:1;stroke-dasharray:none" />
      <path
         sodipodi:nodetypes="cccccc"
         inkscape:connector-curvature="0"
         id="path5506-4"
         d="m 135.69621,519.94745 c -4.54098,-1.77506 -8.69372,-3.8249 -5.95421,-10.75253 2.13295,-3.2014 3.85668,-3.30332 5.46344,-2.51936 2.34406,1.57557 0.25437,2.62902 1.46773,5.24519 4.21652,3.67582 2.67196,3.53708 3.062,4.67927 -0.5733,1.52161 -1.54675,2.83316 -4.03896,3.34743 z"
         style="fill:#000000;fill-opacity:1;stroke:#000000;stroke-width:0.54246795;stroke-linecap:round;stroke-linejoin:round;stroke-miterlimit:4;stroke-opacity:1;stroke-dasharray:none" />
      <path
         sodipodi:nodetypes="cccccc"
         inkscape:connector-curvature="0"
         id="path5506-4-6"
         d="m 135.8536,523.21728 c -1.01567,5.88966 -2.4308,11.37586 -10.93722,9.69986 -4.12347,-1.81943 -4.62233,-3.87306 -4.08524,-5.99361 1.27594,-3.19497 2.9409,-0.92358 5.65425,-2.99997 3.25478,-5.94468 3.43948,-4.05053 4.65512,-4.78868 1.86207,0.33388 3.57349,1.19933 4.71309,4.0824 z"
         style="fill:#000000;fill-opacity:1;stroke:#000000;stroke-width:0.64784163;stroke-linecap:round;stroke-linejoin:round;stroke-miterlimit:4;stroke-opacity:1;stroke-dasharray:none" />
      <path
         sodipodi:nodetypes="cccccc"
         inkscape:connector-curvature="0"
         id="path5506-4-4"
         d="m 119.70052,521.63591 c -0.51628,-4.84818 -0.60983,-9.47833 6.80097,-10.23799 3.82405,0.41845 4.70854,1.90145 4.75286,3.68872 -0.31866,2.80633 -2.2163,1.43682 -3.97943,3.71891 -1.32027,5.43578 -1.90862,4.00094 -2.74274,4.87328 -1.61465,0.19207 -3.22717,-0.0678 -4.83166,-2.04292 z"
         style="fill:#000000;fill-opacity:1;stroke:#000000;stroke-width:0.54246795;stroke-linecap:round;stroke-linejoin:round;stroke-miterlimit:4;stroke-opacity:1;stroke-dasharray:none" />
      <path
         sodipodi:nodetypes="cccccc"
         inkscape:connector-curvature="0"
         id="path5506-4-1"
         d="m 135.72711,532.27707 c 0.55724,-4.84365 1.47924,-9.38203 8.87665,-8.50145 3.63977,1.24518 4.17828,2.8858 3.83039,4.63944 -0.92509,2.66857 -2.47701,0.91697 -4.69684,2.75789 -2.47786,5.01507 -2.73793,3.48626 -3.74275,4.15491 -1.61754,-0.16594 -3.1341,-0.77239 -4.26745,-3.05079 z"
         style="fill:#000000;fill-opacity:1;stroke:#000000;stroke-width:0.54246795;stroke-linecap:round;stroke-linejoin:round;stroke-miterlimit:4;stroke-opacity:1;stroke-dasharray:none" />
      <path
         sodipodi:nodetypes="sssssssss"
         inkscape:connector-curvature="0"
         id="rect5587"
         d="m 115.44977,550.85063 26.57081,0.50108 c 0.28574,0.005 0.87259,1.3092 0.89307,1.77821 l 0.62871,14.40174 c 0.0836,1.91489 -1.23601,2.85196 -1.52178,2.85196 l -27.19951,0 c -0.2858,0 -1.28198,-0.61111 -1.39606,-1.06238 -1.70636,-6.75028 2.05511,-12.19666 1.00595,-17.83772 -0.11423,-0.61421 0.73308,-0.63828 1.01881,-0.63289 z"
         style="fill:#ffffff;fill-opacity:1;stroke:none" />
      <path
         sodipodi:nodetypes="cccccc"
         inkscape:connector-curvature="0"
         id="path5506-4-1-7"
         d="m 135.88523,566.91898 c -4.28793,-2.32057 -8.15674,-4.86603 -4.58526,-11.40372 2.51083,-2.91449 4.234,-2.80343 5.73203,-1.82764 2.13227,1.85215 -0.0712,2.64034 0.81086,5.38598 3.73195,4.16693 2.21622,3.8391 2.46268,5.02062 -0.75625,1.43946 -1.88375,2.6212 -4.42031,2.82476 z"
         style="fill:#000000;fill-opacity:1;stroke:#000000;stroke-width:0.54246795;stroke-linecap:round;stroke-linejoin:round;stroke-miterlimit:4;stroke-opacity:1;stroke-dasharray:none" />
      <path
         sodipodi:nodetypes="cccccc"
         inkscape:connector-curvature="0"
         id="path5506-4-6-1"
         d="m 131.90521,557.41311 c -1.01567,5.88965 -2.43079,11.37586 -10.93722,9.69986 -4.12346,-1.81944 -4.62233,-3.87306 -4.08524,-5.99362 1.27595,-3.19497 2.9409,-0.92357 5.65426,-2.99997 3.25477,-5.94468 3.43947,-4.05052 4.65511,-4.78867 1.86207,0.33387 3.57349,1.19932 4.71309,4.0824 z"
         style="fill:#000000;fill-opacity:1;stroke:#000000;stroke-width:0.64784163;stroke-linecap:round;stroke-linejoin:round;stroke-miterlimit:4;stroke-opacity:1;stroke-dasharray:none" />
    </g>
    <g
       id="g5679"
       transform="matrix(1.1127192,0,0,1.1127192,-6.1875922,-64.345369)"
       inkscape:export-filename="/home/tim/Sync/Code/BuyBananas/img/new categories/tk.png"
       inkscape:export-xdpi="274.53687"
       inkscape:export-ydpi="274.53687">
      <rect
         transform="matrix(0,1,-1,0,0,0)"
         ry="2.0672555"
         rx="1.5854216"
         y="-69.846245"
         x="589.2688"
         height="47.546875"
         width="73.92028"
         id="rect5660"
         style="fill:#000000;fill-opacity:1;stroke:#ffffff;stroke-width:1.35778403;stroke-linecap:round;stroke-linejoin:round;stroke-miterlimit:4;stroke-opacity:1;stroke-dasharray:none" />
      <g
         style="fill:#000000;fill-opacity:1;stroke:#ffffff;stroke-width:6.06548452;stroke-miterlimit:4;stroke-opacity:1;stroke-dasharray:none"
         inkscape:label="Layer 1"
         id="layer1-0"
         transform="matrix(0,0.08487136,-0.08487136,0,79.425095,601.27536)">
        <path
           style="fill:#000000;fill-opacity:1;stroke:#ffffff;stroke-width:6.06548452;stroke-miterlimit:4;stroke-opacity:1;stroke-dasharray:none"
           d="m 309.63455,169.94744 c -13.80264,0 -25.32737,11.5247 -25.32737,25.32737 l 0,16.75091 c -4.71248,-4.09587 -10.78155,-6.3036 -16.88492,-6.24249 -4.89251,0.049 -9.85797,1.55517 -14.11543,4.48921 -11.366,7.83289 -14.32279,23.85279 -6.48819,35.22161 l 37.48854,54.40695 0,20.65942 0,23.66347 -38.39309,-22.16702 -28.37603,-59.66675 c -5.92709,-12.46697 -21.27721,-17.92228 -33.7475,-11.99365 -4.68304,2.22641 -8.45818,5.77614 -10.94393,9.98354 -3.10264,5.2519 -4.23109,11.61039 -3.0375,17.74477 l -14.50628,-8.37541 c -11.95524,-6.90248 -27.68867,-2.6651 -34.58504,9.27998 -6.89627,11.94448 -2.6823,27.68512 9.26883,34.58507 l 14.50629,8.37541 c -5.90733,2.02916 -10.85668,6.18067 -13.85859,11.50233 -2.4107,4.27401 -3.58339,9.32197 -3.17151,14.47278 1.10047,13.7594 13.50131,24.32829 27.25932,23.22793 l 65.86457,-5.27095 38.39308,22.16701 -20.50311,11.83731 -17.88997,10.32971 -65.86457,-5.25976 c -13.75805,-1.10036 -26.15885,9.46863 -27.25932,23.22792 -0.41188,5.15092 0.76088,10.19881 3.17151,14.47279 3.00026,5.3188 7.94449,9.47192 13.84742,11.50229 l -14.49512,8.36427 c -11.96181,6.90616 -16.16871,22.64551 -9.26883,34.59624 6.89997,11.95116 22.64052,16.16517 34.58504,9.2688 l 14.50628,-8.37542 c -1.1957,6.13622 -0.0699,12.49592 3.0375,17.75593 2.49647,4.22559 6.29205,7.76077 10.94393,9.97239 12.45857,5.92305 27.8178,0.49011 33.7475,-11.9825 l 28.37603,-59.6779 17.87881,-10.32971 20.51428,-11.83731 0,23.67462 0,20.65945 -37.48854,54.40695 c -7.83464,11.36882 -4.87777,27.38872 6.48819,35.22157 4.25739,2.93401 9.22263,4.44028 14.11543,4.48924 6.10337,0.0611 12.17244,-2.14665 16.88492,-6.24248 l 0,16.7509 c 0,13.80265 11.52473,25.32738 25.32737,25.32738 13.80264,0 25.32737,-11.52473 25.32737,-25.32738 l 0,-16.7509 c 4.71249,4.09583 10.78155,6.30359 16.88492,6.24248 4.8928,-0.049 9.85797,-1.5552 14.11543,-4.48924 11.36596,-7.83285 14.32283,-23.85275 6.48819,-35.22157 l -37.48854,-54.40695 0,-20.65945 0,-23.67462 38.38192,22.16702 28.37604,59.6779 c 5.92969,12.47257 21.28895,17.90555 33.74751,11.9825 4.65195,-2.21162 8.4475,-5.74673 10.94393,-9.97239 3.10761,-5.26012 4.2332,-11.61968 3.0375,-17.75593 l 14.50626,8.37542 c 11.95063,6.8997 27.69009,2.69301 34.59621,-9.2688 6.90595,-11.96145 2.67565,-27.69366 -9.28002,-34.59624 l -14.49508,-8.36427 c 5.90293,-2.03034 10.84712,-6.18328 13.84742,-11.50229 2.41099,-4.27427 3.58343,-9.32198 3.1715,-14.47279 -1.10043,-13.75929 -13.50128,-24.32828 -27.25932,-23.22792 l -65.86458,5.25976 -17.88997,-10.32971 -20.50311,-11.83731 38.39308,-22.16701 65.86458,5.27095 c 13.758,1.10032 26.15889,-9.46863 27.25932,-23.22793 0.41193,-5.15081 -0.76062,-10.19863 -3.1715,-14.47278 -3.00194,-5.32188 -7.95128,-9.47317 -13.8586,-11.50233 l 14.50626,-8.37541 c 11.94491,-6.89638 16.1824,-22.62983 9.28002,-34.58507 -6.90255,-11.95563 -22.63478,-16.18596 -34.59621,-9.27998 l -14.50626,8.37541 c 1.19363,-6.13438 0.0653,-12.4928 -3.0375,-17.74477 -2.48578,-4.20768 -6.26089,-7.75713 -10.94393,-9.98354 -12.47028,-5.92863 -27.82045,-0.47332 -33.74751,11.99365 l -28.37604,59.66675 -38.38192,22.16702 0,-23.66347 0,-20.65942 37.48854,-54.40695 c 7.8346,-11.36882 4.87781,-27.38872 -6.48819,-35.22161 -4.25753,-2.93408 -9.22292,-4.44021 -14.11543,-4.48921 -6.10337,-0.0611 -12.17243,2.14662 -16.88492,6.24249 l 0,-16.75091 c 0,-13.80267 -11.52473,-25.32737 -25.32737,-25.32737 z m 0,13.07686 c 6.78767,0 12.2505,5.46285 12.2505,12.25051 l 0,57.3663 19.6209,-28.4654 c 2.40726,-3.49312 6.27722,-5.35496 10.20688,-5.31562 2.35778,0.0236 4.7385,0.73322 6.83437,2.1776 5.589,3.85166 6.98963,11.45223 3.13801,17.04129 l -39.80016,57.75714 0,24.7243 0,46.3107 61.5205,-35.52308 30.11814,-63.34077 c 2.91438,-6.13017 10.19641,-8.72137 16.32655,-5.80698 2.29881,1.0929 4.10509,2.80526 5.30447,4.83541 1.99889,3.38349 2.324,7.65982 0.50251,11.49111 l -14.84129,31.22369 49.67203,-28.67756 c 5.87827,-3.39381 13.34591,-1.38902 16.73972,4.48929 3.39385,5.87827 1.38903,13.33476 -4.48924,16.72854 l -49.68318,28.67755 34.47335,2.76948 c 4.22881,0.3382 7.7736,2.75265 9.70438,6.17552 1.15843,2.05374 1.7328,4.47577 1.5299,7.01305 -0.5411,6.76608 -6.42248,11.77541 -13.18853,11.23427 l -69.91831,-5.59478 -61.5205,35.52307 40.11284,23.16093 21.40766,12.36215 69.91831,-5.58363 c 6.76605,-0.54114 12.64743,4.46822 13.18853,11.23431 0.2029,2.53724 -0.37147,4.9593 -1.5299,7.01304 -1.93078,3.4229 -5.47557,5.83725 -9.70438,6.17549 l -34.4622,2.75833 49.67203,28.67755 c 5.87827,3.39382 7.88306,10.86146 4.48924,16.73973 -3.39381,5.87831 -10.86145,7.87191 -16.73972,4.47809 l -49.67203,-28.67755 14.84129,31.22369 c 1.82149,3.83129 1.49638,8.11877 -0.50251,11.50226 -1.19938,2.03015 -3.00566,3.73137 -5.30447,4.82426 -6.13014,2.91439 -13.41217,0.33437 -16.32655,-5.7958 l -30.11814,-63.35195 -61.5205,-35.52308 0,46.32185 0,24.72434 39.80016,57.75713 c 3.85165,5.58907 2.45099,13.1896 -3.13801,17.04125 -2.09587,1.44438 -4.47659,2.15401 -6.83437,2.17763 -3.92966,0.0393 -7.79962,-1.82249 -10.20688,-5.31561 l -19.6209,-28.46539 0,57.36628 c 0,6.78763 -5.46283,12.25048 -12.2505,12.25048 -6.78767,0 -12.2505,-5.46285 -12.2505,-12.25048 l 0,-57.36628 -19.6209,28.46539 c -2.40726,3.49312 -6.27722,5.35492 -10.20688,5.31561 -2.35781,-0.0236 -4.7385,-0.73325 -6.83437,-2.17763 -5.589,-3.85165 -6.98966,-11.45218 -3.13801,-17.04125 l 39.80016,-57.75713 0,-24.72434 0,-46.32185 -40.124,23.16093 -21.40767,12.36215 -30.11813,63.35195 c -2.91439,6.13017 -10.19642,8.71019 -16.32656,5.7958 -2.29877,-1.09289 -4.1051,-2.79411 -5.30445,-4.82426 -1.99889,-3.38349 -2.32402,-7.67097 -0.50253,-11.50226 l 14.85248,-31.23488 -49.6832,28.68874 c -5.8782,3.39385 -13.33472,1.40022 -16.72857,-4.47809 -3.39389,-5.87827 -1.4002,-13.34591 4.47807,-16.73973 l 49.67203,-28.67755 -34.4622,-2.75833 c -4.22881,-0.33824 -7.77358,-2.75259 -9.70436,-6.17549 -1.15839,-2.05374 -1.73282,-4.4758 -1.52992,-7.01304 0.54114,-6.76609 6.42251,-11.77545 13.18855,-11.23431 l 69.91829,5.58363 21.40766,-12.36215 40.12401,-23.16093 -61.53167,-35.52307 -69.91829,5.59478 c -6.76597,0.54114 -12.64741,-4.46819 -13.18855,-11.23427 -0.2029,-2.53728 0.37149,-4.95931 1.52992,-7.01305 1.93078,-3.42287 5.47555,-5.83732 9.70436,-6.17552 l 34.47337,-2.7583 -49.6832,-28.68873 c -5.87831,-3.39378 -7.87196,-10.85027 -4.47807,-16.72854 3.39381,-5.87831 10.85037,-7.8831 16.72857,-4.48929 l 49.6832,28.68875 -14.85248,-31.23488 c -1.82149,-3.83129 -1.49636,-8.10762 0.50253,-11.49111 1.19939,-2.03015 3.00568,-3.74251 5.30445,-4.83541 6.13014,-2.91439 13.41217,-0.32319 16.32656,5.80698 l 30.11813,63.34077 61.53167,35.52308 0,-46.3107 0,-24.7243 -39.80016,-57.75714 c -3.85162,-5.58906 -2.45099,-13.18963 3.13801,-17.04129 2.09587,-1.44438 4.47656,-2.15398 6.83437,-2.1776 3.92966,-0.0394 7.79962,1.8225 10.20688,5.31562 l 19.6209,28.4654 0,-57.3663 c 0,-6.78766 5.46283,-12.25051 12.2505,-12.25051 z"
           id="path3210"
           inkscape:connector-curvature="0" />
      </g>
    </g>
    <g
       id="g5935"
       transform="matrix(0.52858409,0,0,0.52858409,-62.836238,364.65377)"
       inkscape:export-filename="/home/tim/Sync/Code/BuyBananas/img/new categories/kühlregal.png"
       inkscape:export-xdpi="275.01202"
       inkscape:export-ydpi="275.01202">
      <rect
         ry="4"
         rx="4"
         y="427.27979"
         x="305.04889"
         height="157.33125"
         width="133.99673"
         id="rect5703"
         style="fill:#000000;fill-opacity:1;stroke:#ffffff;stroke-width:1;stroke-linecap:round;stroke-linejoin:round;stroke-miterlimit:4;stroke-opacity:1;stroke-dasharray:none" />
      <rect
         y="532.81549"
         x="312.6503"
         height="43.487061"
         width="118.79394"
         id="rect5703-7-4"
         style="fill:#ffffff;fill-opacity:1;stroke:none" />
      <rect
         y="483.31799"
         x="312.6503"
         height="43.487061"
         width="118.79394"
         id="rect5703-7-4-6"
         style="fill:#ffffff;fill-opacity:1;stroke:none" />
      <rect
         y="433.82053"
         x="312.6503"
         height="43.487061"
         width="118.79394"
         id="rect5703-7-4-2"
         style="fill:#ffffff;fill-opacity:1;stroke:none" />
      <g
         transform="matrix(0.29804031,0,0,0.29804031,188.76758,357.78061)"
         id="g5699">
        <path
           style="fill:#000000;fill-opacity:1;stroke:#000000;stroke-width:1px;stroke-linecap:butt;stroke-linejoin:miter;stroke-opacity:1"
           d="m 457.91127,483.69061 73.125,0 0,5.375 -5.625,0 0,61.5 c -1.69234,6.0942 -5.09904,10.82699 -12.4375,12.4375 l -37.4375,0 c -4.99584,-1.29341 -9.31982,-4.55072 -12.15625,-12.15625 l 0,-62.15625 -5.59375,0 z"
           id="path5695"
           inkscape:connector-curvature="0"
           sodipodi:nodetypes="ccccccccccc" />
        <path
           style="fill:#000000;fill-opacity:1;stroke:#000000;stroke-width:1px;stroke-linecap:butt;stroke-linejoin:miter;stroke-opacity:1"
           d="m 530.59877,454.44061 c -10.26895,-13.5827 -26.49448,3.76364 -27.6875,5.8125 -4.74375,7.2744 -1.09601,9.75789 2.625,11.8125 16.18054,2.1873 21.29839,-0.0651 26.1875,-8.5625 0.39179,-1.45398 0.76103,-2.94178 0.5,-5.375 19.47917,-6.77083 57.74238,-18.73475 58.4375,-20.3125 1.3903,-3.85985 0.63809,-6.21415 -4.125,-5.75 z"
           id="path5697"
           inkscape:connector-curvature="0"
           sodipodi:nodetypes="cccccccc" />
      </g>
      <path
         sodipodi:nodetypes="ccccccccccc"
         inkscape:connector-curvature="0"
         id="path5695-2"
         d="m 352.08399,502.00494 22.33177,0 0,1.59744 -1.71783,0 0,18.27781 c -0.51683,1.81119 -1.55721,3.21778 -3.79831,3.69643 l -11.43311,0 c -1.52569,-0.38442 -2.84619,-1.35248 -3.71242,-3.61285 l 0,-18.47282 -1.70828,0 z"
         style="fill:#000000;fill-opacity:1;stroke:#000000;stroke-width:0.30126798px;stroke-linecap:butt;stroke-linejoin:miter;stroke-opacity:1" />
      <path
         sodipodi:nodetypes="ccccccccccc"
         inkscape:connector-curvature="0"
         id="path5695-2-6"
         d="m 378.46904,502.00494 22.33177,0 0,1.59744 -1.71783,0 0,18.27781 c -0.51683,1.81119 -1.55721,3.21778 -3.79831,3.69643 l -11.43311,0 c -1.52569,-0.38442 -2.84619,-1.35248 -3.71242,-3.61285 l 0,-18.47282 -1.70828,0 z"
         style="fill:#000000;fill-opacity:1;stroke:#000000;stroke-width:0.30126798px;stroke-linecap:butt;stroke-linejoin:miter;stroke-opacity:1" />
      <rect
         transform="matrix(0,-1,1,0,0,0)"
         y="316.9606"
         x="-575.24188"
         height="18.9151"
         width="36.769554"
         id="rect5703-7-4-1"
         style="fill:#000000;fill-opacity:1;stroke:none" />
      <rect
         transform="matrix(0,-1,1,0,0,0)"
         y="340.00787"
         x="-575.24188"
         height="18.9151"
         width="24.041632"
         id="rect5703-7-4-1-1"
         style="fill:#000000;fill-opacity:1;stroke:none" />
      <rect
         transform="matrix(0,-1,1,0,0,0)"
         y="386.10239"
         x="-575.24188"
         height="18.9151"
         width="36.769554"
         id="rect5703-7-4-1-0"
         style="fill:#000000;fill-opacity:1;stroke:none" />
      <rect
         transform="matrix(0,-1,1,0,0,0)"
         y="363.05515"
         x="-575.24188"
         height="18.9151"
         width="24.041632"
         id="rect5703-7-4-1-1-0"
         style="fill:#000000;fill-opacity:1;stroke:none" />
      <rect
         transform="matrix(0,-1,1,0,0,0)"
         y="409.14966"
         x="-575.24188"
         height="18.9151"
         width="24.041632"
         id="rect5703-7-4-1-1-7"
         style="fill:#000000;fill-opacity:1;stroke:none" />
      <rect
         transform="matrix(0,-1,1,0,0,0)"
         y="382.89832"
         x="-475.80499"
         height="18.9151"
         width="36.769554"
         id="rect5703-7-4-1-0-9"
         style="fill:#000000;fill-opacity:1;stroke:none" />
      <rect
         transform="matrix(0,-1,1,0,0,0)"
         y="404.2883"
         x="-475.80499"
         height="18.9151"
         width="24.041632"
         id="rect5703-7-4-1-1-7-9"
         style="fill:#000000;fill-opacity:1;stroke:none" />
      <path
         sodipodi:nodetypes="ccccccccccc"
         inkscape:connector-curvature="0"
         id="path5695-2-6-7"
         d="m 317.30431,452.08268 22.33177,0 0,1.59744 -1.71783,0 0,18.27781 c -0.51683,1.81119 -1.55721,3.21778 -3.79831,3.69643 l -11.43311,0 c -1.52569,-0.38442 -2.84619,-1.35248 -3.71242,-3.61285 l 0,-18.47282 -1.70828,0 z"
         style="fill:#000000;fill-opacity:1;stroke:#000000;stroke-width:0.30126798px;stroke-linecap:butt;stroke-linejoin:miter;stroke-opacity:1" />
    </g>
    <g
       id="g6015"
       transform="translate(2.4142999,0)"
       inkscape:export-filename="/home/tim/Sync/Code/BuyBananas/img/new categories/getränke.png"
       inkscape:export-xdpi="300.94803"
       inkscape:export-ydpi="300.94803">
      <g
         transform="translate(-4.5456865,2.0203051)"
         id="g5001">
        <path
           style="fill:none;stroke:#000000;stroke-width:5.43972158;stroke-linecap:round;stroke-linejoin:round;stroke-miterlimit:4;stroke-opacity:1;stroke-dasharray:none"
           d="m 47.636826,278.79643 c -7.957063,0.006 -15.644966,0.78723 -12.330095,-10.79209 l 0.03121,-31.26066 c 0,0 6.002665,-15.07182 6.346109,-16.44555 0.343429,-1.37375 0.228943,-12.47813 0.228943,-12.47813 l 9.043771,-0.11441 0.286201,12.07745 7.96437,16.27958 -0.08903,32.14733 c 3.487571,11.91636 -5.418161,10.60203 -11.481347,10.58648 z"
           id="path4973"
           inkscape:connector-curvature="0"
           sodipodi:nodetypes="ccccccccccc" />
        <rect
           style="fill:#000000;fill-opacity:1;stroke:none"
           id="rect4981"
           width="26.918066"
           height="18.99045"
           x="33.783726"
           y="243.71718" />
        <rect
           style="fill:#000000;fill-opacity:1;stroke:none"
           id="rect4981-7"
           width="7.1104326"
           height="5.0163455"
           x="42.808647"
           y="211.87238" />
      </g>
      <path
         transform="matrix(1.6758396,0,0,1.6758396,-710.05329,-422.74691)"
         d="m 451.74106,406.35773 c 0,0.92458 -0.74952,1.6741 -1.6741,1.6741 -0.92459,0 -1.67411,-0.74952 -1.67411,-1.6741 0,-0.92459 0.74952,-1.67411 1.67411,-1.67411 0.92458,0 1.6741,0.74952 1.6741,1.67411 z"
         sodipodi:ry="1.6741072"
         sodipodi:rx="1.6741072"
         sodipodi:cy="406.35773"
         sodipodi:cx="450.06696"
         id="path5010-3-1"
         style="fill:#ffffff;fill-opacity:1;stroke:none"
         sodipodi:type="arc" />
      <path
         transform="matrix(1.0686706,0,0,1.0686706,-432.69385,-179.38023)"
         d="m 451.74106,406.35773 c 0,0.92458 -0.74952,1.6741 -1.6741,1.6741 -0.92459,0 -1.67411,-0.74952 -1.67411,-1.6741 0,-0.92459 0.74952,-1.67411 1.67411,-1.67411 0.92458,0 1.6741,0.74952 1.6741,1.67411 z"
         sodipodi:ry="1.6741072"
         sodipodi:rx="1.6741072"
         sodipodi:cy="406.35773"
         sodipodi:cx="450.06696"
         id="path5010-3-1-9"
         style="fill:#ffffff;fill-opacity:1;stroke:none"
         sodipodi:type="arc" />
      <path
         transform="matrix(0.73868744,0,0,0.73868744,-287.5303,-47.732692)"
         d="m 451.74106,406.35773 c 0,0.92458 -0.74952,1.6741 -1.6741,1.6741 -0.92459,0 -1.67411,-0.74952 -1.67411,-1.6741 0,-0.92459 0.74952,-1.67411 1.67411,-1.67411 0.92458,0 1.6741,0.74952 1.6741,1.67411 z"
         sodipodi:ry="1.6741072"
         sodipodi:rx="1.6741072"
         sodipodi:cy="406.35773"
         sodipodi:cx="450.06696"
         id="path5010-3-1-3"
         style="fill:#ffffff;fill-opacity:1;stroke:none"
         sodipodi:type="arc" />
    </g>
  </g>
</svg>
